<svg width="1620" height="672" viewBox="0 0 1620 672" fill="none" xmlns="http://www.w3.org/2000/svg">
<path d="M1341 633.618L1345.01 645.974L1345.13 646.32H1345.49H1358.48L1347.97 653.956L1347.68 654.17L1347.79 654.515L1351.8 666.871L1341.29 659.235L1341 659.021L1340.71 659.235L1330.2 666.871L1334.21 654.515L1334.32 654.17L1334.03 653.956L1323.52 646.32H1336.51H1336.87L1336.99 645.974L1341 633.618Z" stroke="#263238"/>
<circle cx="1333" cy="293" r="8" fill="#263238" fill-opacity="0.4"/>
<path d="M257 245L261.49 258.82H276.021L264.265 267.361L268.756 281.18L257 272.639L245.244 281.18L249.735 267.361L237.979 258.82H252.51L257 245Z" fill="#263238" fill-opacity="0.4"/>
<circle cx="411.5" cy="631.5" r="8" stroke="#263238" stroke-opacity="0.4"/>
<path d="M23 568.515C23 563.9 19.22 563.374 16.183 562.952C12.873 562.492 11 562.092 11 559.242C11 556.85 13.507 556 15.654 556C16.724 555.965 17.7868 556.186 18.7549 556.643C19.723 557.1 20.5686 557.78 21.222 558.628L22.778 557.372C22.0783 556.472 21.2076 555.72 20.216 555.157C19.2244 554.595 18.1315 554.234 17 554.096V551H15V554.022C11.385 554.242 9.00005 556.282 9.00005 559.242C9.00005 563.972 12.83 564.505 15.907 564.932C19.16 565.385 21 565.774 21 568.515C21 571.547 17.867 572 16 572C12.57 572 11.122 571.036 9.77805 569.372L8.22205 570.628C9.01481 571.673 10.0402 572.518 11.2167 573.097C12.3933 573.677 13.6887 573.974 15 573.965V577H17V573.955C20.726 573.651 23 571.628 23 568.515Z" fill="#263238" fill-opacity="0.4"/>
<path d="M1597.33 257V242.403C1597.33 242.092 1597.44 241.791 1597.63 241.546C1597.82 241.3 1598.08 241.125 1598.38 241.047C1598.68 240.969 1599 240.993 1599.29 241.116C1599.57 241.238 1599.81 241.451 1599.96 241.723L1608.04 256.277C1608.19 256.549 1608.43 256.762 1608.71 256.884C1609 257.007 1609.32 257.031 1609.62 256.953C1609.92 256.875 1610.18 256.7 1610.37 256.454C1610.56 256.209 1610.67 255.908 1610.67 255.597V241" stroke="#263238" stroke-opacity="0.4" stroke-width="2" stroke-linecap="round" stroke-linejoin="round"/>
<path d="M1594.67 246.333H1613.33" stroke="#263238" stroke-opacity="0.4" stroke-width="2" stroke-linecap="round" stroke-linejoin="round"/>
<path d="M1594.67 251.667H1613.33" stroke="#263238" stroke-opacity="0.4" stroke-width="2" stroke-linecap="round" stroke-linejoin="round"/>
<path d="M1157.23 40.3245C1157.95 40.3245 1158.53 39.9256 1158.53 39.4335C1158.53 38.9414 1157.95 38.5425 1157.23 38.5425C1156.51 38.5425 1155.92 38.9414 1155.92 39.4335C1155.92 39.9256 1156.51 40.3245 1157.23 40.3245Z" fill="#263238" fill-opacity="0.4"/>
<path d="M1195.5 35.0017L1195.01 34.7137C1194.97 34.692 1191.22 32.4683 1190.29 29.7698L1190.08 29.172L1189.7 29.6737C1189.69 29.6895 1189.16 30.348 1187.67 31.1205C1186.56 24.8407 1182.81 17.3438 1177.88 14.1473C1179.29 14.2613 1180.7 14.1442 1182.07 13.6478C1182.89 13.3493 1182.53 12.0097 1181.71 12.3127C1180.59 12.72 1179.46 12.831 1178.35 12.774C1181.09 10.2562 1183.25 6.3975 1183.25 3.576C1183.25 2.898 1183.25 1.63575 1182.25 1.63575C1181.84 1.63575 1181.52 1.88775 1181.06 2.23575C1180.37 2.769 1179.33 3.576 1177.8 3.576C1177.21 3.576 1176.14 2.9595 1175.28 2.4645C1174.24 1.86675 1173.58 1.5 1173.02 1.5C1172.1 1.5 1170.74 2.247 1169.54 2.90625C1169.05 3.174 1168.39 3.5415 1168.25 3.57675C1166.51 3.57675 1165.5 2.77575 1164.83 2.2455C1164.44 1.935 1164.16 1.71 1163.78 1.71C1162.8 1.71 1162.8 2.89575 1162.8 4.269C1162.8 6.9195 1164.81 10.4182 1167.46 12.7695C1165.79 12.8887 1164.15 13.392 1163 14.5103C1162.36 15.1267 1163.32 16.1047 1163.96 15.4897C1164.92 14.5597 1166.18 14.1615 1167.52 14.0842C1167.56 14.2215 1167.61 14.3565 1167.66 14.4893C1162.03 18.54 1158.02 28.1587 1158.02 34.6522C1158.02 35.2927 1158.07 35.8725 1158.15 36.4185C1156.7 35.7728 1156.16 35.2065 1156.15 35.1937L1155.77 34.7475L1155.58 35.31C1154.73 37.788 1151.07 39.9375 1151.04 39.9593L1150.5 40.2705L1151.05 40.5653C1151.24 40.6688 1151.43 40.7595 1151.62 40.8577L1151.27 41.097L1151.45 43.377L1165.74 46.5L1171.16 43.0343C1171.71 43.0373 1172.26 43.0387 1172.83 43.0387L1179.16 46.5L1193.48 42V39.5933L1193.1 39.366C1193.29 39.246 1193.47 39.1238 1193.66 38.9977L1194.17 38.6625L1194.05 38.6085L1194.69 38.4338L1194.8 35.9318L1194.43 35.67C1194.63 35.5522 1194.82 35.4323 1195.02 35.3078L1195.5 35.0017ZM1164.16 4.269C1164.16 3.936 1164.16 3.6765 1164.17 3.47475C1164.29 3.56475 1164.42 3.663 1164.56 3.76425C1165 4.81125 1165.83 6.31875 1167.23 7.26825C1168.93 8.42325 1168.71 7.09575 1169.62 5.88375C1170.52 4.6725 1171.14 4.038 1172.66 7.1535C1173.33 8.51175 1174.43 4.716 1175.48 4.16175C1175.76 4.31325 1176.04 4.45425 1176.31 4.57425C1178.2 7.64025 1179.07 6.684 1180.75 4.1355C1181.21 3.8655 1181.58 3.576 1181.88 3.34425C1181.89 3.414 1181.89 3.49125 1181.89 3.5775C1181.89 5.985 1179.92 9.438 1177.51 11.6903C1177.4 11.4012 1177.23 11.134 1177.03 10.9005C1176.06 9.79875 1174.54 11.0205 1173.82 11.8222C1172.54 11.4113 1170.45 10.2795 1169.1 10.9275C1168.76 11.0843 1168.45 11.2948 1168.18 11.5507C1165.96 9.52725 1164.16 6.606 1164.16 4.269ZM1176.31 12.4995C1175.98 12.4282 1175.64 12.3482 1175.31 12.2595C1175.73 11.8988 1176.11 11.7728 1176.27 12.309C1176.29 12.3675 1176.3 12.4342 1176.31 12.4995ZM1170.61 12.9653C1170.36 12.918 1170.11 12.8752 1169.85 12.8415C1169.65 12.7167 1169.45 12.5854 1169.26 12.4478C1169.95 11.988 1171.13 12.2325 1172.26 12.6157C1171.7 12.672 1171.15 12.7935 1170.61 12.9653ZM1170.95 14.9452C1170.53 15.0503 1170.08 15.0083 1169.68 14.8507C1169.84 14.766 1170 14.6925 1170.16 14.6182C1170.43 14.745 1170.69 14.8507 1170.95 14.9452ZM1157.08 42.2843C1155.29 41.7662 1153.56 41.0799 1151.9 40.2345C1152.91 39.5655 1155.13 37.9478 1156.03 36.0037C1156.65 36.489 1158.08 37.374 1160.86 38.0535C1160.81 38.13 1160.75 38.2118 1160.69 38.292C1158.32 37.671 1156.97 36.8857 1156.95 36.8722L1156.63 36.6772L1156.47 37.0275C1156.26 37.4865 1155.78 37.5555 1155.51 37.5555C1155.44 37.5555 1155.38 37.5503 1155.38 37.5495L1155.11 37.5105L1155.01 37.767C1154.81 38.2905 1153.99 38.9745 1153.69 39.1942L1153.19 39.5618L1153.77 39.7965C1153.98 39.8835 1154.04 39.9637 1154.04 39.9847C1154.05 40.0365 1153.96 40.173 1153.86 40.2517L1153.42 40.6035L1153.93 40.8382C1154.97 41.3182 1156.15 41.7157 1157.33 42.0435C1157.23 42.1357 1157.15 42.2145 1157.08 42.2843ZM1163.13 39.4897C1164.18 39.6367 1165.34 39.7298 1166.61 39.7298H1166.61C1166.87 39.7298 1167.14 39.7253 1167.41 39.717C1167.43 39.7736 1167.46 39.8274 1167.49 39.8767C1167.56 39.978 1167.65 40.062 1167.76 40.1273L1165.85 41.763C1165.81 41.7614 1165.77 41.7607 1165.74 41.7607C1164.88 41.7607 1164.25 42.0742 1163.94 42.6322C1162.79 42.4847 1161.64 42.2979 1160.49 42.072C1161.41 41.2538 1162.29 40.3921 1163.13 39.4897ZM1154.62 40.3875C1154.69 40.2458 1154.74 40.074 1154.71 39.8865C1154.69 39.7173 1154.61 39.5615 1154.48 39.444C1154.82 39.1553 1155.29 38.7098 1155.54 38.2485C1156.12 38.2402 1156.6 38.0205 1156.9 37.632C1157.41 37.8975 1158.55 38.4338 1160.24 38.8988C1159.55 39.765 1158.62 40.7475 1157.9 41.478C1156.77 41.1795 1155.63 40.8195 1154.62 40.3875ZM1165.31 43.5443L1165.15 43.545C1164.51 43.545 1162.37 43.4925 1159.54 42.9038C1159.64 42.8198 1159.74 42.7335 1159.84 42.651C1162.13 43.1302 1163.98 43.3357 1164.12 43.3515L1164.39 43.3807L1164.48 43.1145C1164.66 42.54 1165.35 42.4552 1165.74 42.4552C1165.84 42.4552 1165.92 42.462 1165.92 42.4627L1166.07 42.4785L1169.39 39.6375L1168.51 39.6082C1168.21 39.5978 1168.08 39.531 1168.05 39.4852L1168.24 38.9925L1167.72 39.0143C1167.34 39.0308 1166.97 39.039 1166.61 39.039H1166.61C1165.56 39.039 1164.59 38.97 1163.69 38.8612L1163.9 38.6152C1165.71 38.8575 1167.88 39.0068 1170.5 38.988C1169.88 39.8655 1168.32 41.7307 1165.31 43.5443ZM1172.82 40.2855V41.6543C1172.4 41.6543 1171.98 41.6528 1171.57 41.6497L1171.45 40.1092L1170.44 40.1917C1171.12 39.3833 1171.41 38.844 1171.44 38.7952L1171.71 38.2747L1171.13 38.2853C1165.57 38.3872 1161.94 37.7243 1159.65 36.9878C1159.48 36.3113 1159.39 35.5462 1159.39 34.653C1159.39 28.5607 1163.28 19.3522 1168.45 15.6202C1169.36 16.506 1170.75 16.8937 1172.07 16.032C1172.36 15.843 1172.61 15.5955 1172.85 15.3323C1172.91 15.3338 1172.96 15.3465 1173.02 15.3465C1173.21 15.3465 1173.4 15.3308 1173.59 15.3068C1173.84 15.4035 1174.07 15.501 1174.29 15.5978C1175.35 16.0613 1176.24 15.7733 1176.86 15.1343C1181.59 17.9993 1185.39 25.578 1186.38 31.704C1184.22 32.5695 1180.79 33.414 1175.52 33.5625C1176.56 32.9685 1177.34 31.9695 1177.06 30.657C1176.76 29.2695 1175.6 28.8795 1174.4 28.8158C1174.4 28.164 1174.4 27.5138 1174.4 26.862C1174.77 27.0248 1175.12 27.2122 1175.44 27.4125C1176.01 27.7687 1176.52 26.8455 1175.96 26.4893C1175.47 26.1822 1174.95 25.9309 1174.41 25.74C1174.41 24.9855 1174.42 24.2325 1174.42 23.4795C1174.42 22.7895 1173.39 22.7895 1173.39 23.4795C1173.39 24.1418 1173.39 24.8032 1173.38 25.464C1172.84 25.3689 1172.28 25.3595 1171.73 25.4363C1171.64 24.9398 1171.53 24.447 1171.41 23.9587C1171.24 23.2943 1170.25 23.5755 1170.42 24.2423C1170.55 24.7215 1170.65 25.1985 1170.73 25.6823C1170.69 25.6987 1170.64 25.707 1170.6 25.7265C1169.21 26.2762 1168.36 27.678 1169.38 28.9852C1169.85 29.5942 1170.47 29.8403 1171.15 29.922C1171.19 30.8242 1171.21 31.7273 1171.24 32.6287C1170.78 32.334 1170.37 31.956 1169.99 31.5563C1169.53 31.0673 1168.81 31.8225 1169.27 32.3108C1169.9 32.9805 1170.56 33.4868 1171.28 33.8108C1171.31 34.581 1171.35 35.3535 1171.43 36.12C1171.49 36.8003 1172.52 36.804 1172.45 36.12C1172.39 35.457 1172.34 34.7926 1172.31 34.1273C1172.7 34.1947 1173.11 34.212 1173.55 34.1707C1173.6 34.8802 1173.65 35.5897 1173.74 36.2992C1173.78 36.7057 1174.17 36.8655 1174.46 36.783L1174.39 38.256C1173.94 38.2965 1173.48 38.334 1173 38.3655L1172.43 38.403L1172.73 38.895C1172.76 38.9445 1173.11 39.4912 1173.88 40.287H1172.82V40.2855ZM1191.49 35.349C1190.55 35.7923 1189.35 36.1987 1188.14 36.5535C1187.39 35.7817 1186.44 34.752 1185.72 33.8385C1187.31 33.357 1188.2 32.8605 1188.6 32.5928C1188.92 32.8725 1189.34 33.018 1189.84 33.0173C1190 33.0173 1190.15 33.0015 1190.26 32.9835C1190.62 33.45 1191.2 33.9885 1191.56 34.3102C1191.39 34.4865 1191.31 34.6815 1191.32 34.8923C1191.32 35.0723 1191.39 35.2253 1191.49 35.349ZM1186.12 37.8135C1186.28 37.9485 1186.43 38.0865 1186.6 38.226C1183.55 39.0322 1181.29 39.12 1180.8 39.1283C1177.65 37.2075 1176.02 35.175 1175.39 34.26C1178.02 34.194 1180.2 33.9555 1182.02 33.627C1182.09 33.7177 1182.17 33.8077 1182.24 33.897C1180.78 34.1244 1179.31 34.2704 1177.84 34.3343L1177.23 34.3597L1177.56 34.869C1177.56 34.8698 1177.49 34.9958 1177.05 35.0827L1176.32 35.2245L1179.89 38.1173L1180.06 38.0723C1180.06 38.0715 1180.38 37.9867 1180.76 37.9867C1181.31 37.9867 1181.69 38.154 1181.87 38.481L1181.99 38.688L1182.23 38.6468C1183.53 38.4086 1184.83 38.1307 1186.12 37.8135ZM1175.55 35.6092L1174.7 35.5628C1174.66 35.1367 1174.62 34.7108 1174.59 34.2848C1174.74 34.5338 1175.04 35.0018 1175.55 35.6092ZM1174.49 32.8635C1174.44 31.8539 1174.42 30.8435 1174.4 29.8328C1174.53 29.8372 1174.65 29.8485 1174.76 29.865C1176.09 30.066 1176.44 31.5405 1175.4 32.37C1175.13 32.5837 1174.82 32.7405 1174.49 32.8635ZM1182.32 37.9275C1181.99 37.5127 1181.45 37.2952 1180.76 37.2952C1180.47 37.2952 1180.22 37.3342 1180.06 37.3657L1177.81 35.5455C1178 35.4383 1178.12 35.3025 1178.19 35.136C1178.21 35.0946 1178.22 35.0516 1178.23 35.0077C1180.01 34.9102 1181.51 34.7325 1182.78 34.515C1183.4 35.2013 1184.3 36.1478 1185.5 37.248C1184.03 37.5983 1182.8 37.8382 1182.32 37.9275ZM1173.38 29.8597C1173.39 30.9465 1173.42 32.0362 1173.48 33.1222C1173.38 33.1372 1173.29 33.156 1173.19 33.1658C1172.87 33.2025 1172.56 33.1755 1172.27 33.102C1172.23 32.052 1172.21 30.9998 1172.17 29.949C1172.57 29.9303 1172.98 29.8905 1173.38 29.8597ZM1172.12 28.911C1172.07 28.0869 1171.99 27.2648 1171.89 26.4465C1172.38 26.3782 1172.89 26.4039 1173.38 26.5222C1173.37 27.289 1173.37 28.0557 1173.37 28.8225C1173.04 28.8405 1172.73 28.872 1172.46 28.8967C1172.34 28.9055 1172.23 28.9102 1172.12 28.911ZM1171.09 28.7798C1171.03 28.7625 1170.96 28.749 1170.9 28.7273C1170.6 28.6255 1170.33 28.4541 1170.1 28.227C1169.46 27.6293 1170.34 27.0428 1170.9 26.7645C1170.98 27.432 1171.04 28.1055 1171.09 28.7798ZM1179.37 43.3792C1176.11 41.7158 1174.36 39.867 1173.67 39.0105C1174.17 38.973 1174.64 38.928 1175.11 38.8807L1180.45 42.3457L1192.15 39.1297C1186.12 42.7687 1180.15 43.323 1179.37 43.3792ZM1189.04 37.4618C1188.94 37.3657 1188.83 37.2518 1188.69 37.1145C1190.02 36.711 1191.31 36.243 1192.27 35.7285L1192.86 35.4143L1192.26 35.1128C1192.13 35.0445 1192 34.9193 1192 34.872C1192 34.854 1192.05 34.758 1192.28 34.6275L1192.71 34.3785L1192.33 34.0575C1192.32 34.0477 1191.11 33.0495 1190.69 32.4067L1190.55 32.1968L1190.31 32.2665C1190.31 32.2665 1190.1 32.3258 1189.84 32.3258C1189.42 32.3265 1189.12 32.1915 1188.92 31.926L1188.7 31.6357L1188.42 31.872C1188.41 31.884 1187.56 32.5807 1185.28 33.2393C1185.21 33.1311 1185.13 33.0211 1185.06 32.9093C1187.83 32.0715 1189.24 31.0575 1189.85 30.5025C1190.83 32.628 1193.17 34.3402 1194.19 35.0115C1192.56 35.9987 1190.83 36.8196 1189.04 37.4618Z" fill="#263238" fill-opacity="0.4"/>
<path d="M1182.29 35.3378C1181.54 35.1346 1180.69 35.2733 1180.4 35.6446C1180.1 36.0173 1180.48 36.4868 1181.22 36.6916C1181.97 36.8948 1182.81 36.7553 1183.11 36.3833C1183.4 36.0106 1183.03 35.5426 1182.29 35.3378Z" fill="#263238" fill-opacity="0.4"/>
</svg>
